<mxfile host="Electron" agent="Mozilla/5.0 (Macintosh; Intel Mac OS X 10_15_7) AppleWebKit/537.36 (KHTML, like Gecko) draw.io/26.0.9 Chrome/128.0.6613.186 Electron/32.2.5 Safari/537.36" version="26.0.9">
  <diagram name="Page-1" id="c_4XGHAoj2SWM_LFrom1">
    <mxGraphModel dx="1114" dy="821" grid="1" gridSize="10" guides="1" tooltips="1" connect="1" arrows="1" fold="1" page="1" pageScale="1" pageWidth="827" pageHeight="1169" math="0" shadow="0">
      <root>
        <mxCell id="0" />
        <mxCell id="1" parent="0" />
        <mxCell id="VSo4V4eXXir1srvnfNkP-4" style="edgeStyle=orthogonalEdgeStyle;rounded=0;orthogonalLoop=1;jettySize=auto;html=1;entryX=0;entryY=0.5;entryDx=0;entryDy=0;endArrow=block;endFill=1;" edge="1" parent="1" source="VSo4V4eXXir1srvnfNkP-1" target="VSo4V4eXXir1srvnfNkP-2">
          <mxGeometry relative="1" as="geometry" />
        </mxCell>
        <mxCell id="VSo4V4eXXir1srvnfNkP-6" value="모델 A" style="edgeLabel;html=1;align=center;verticalAlign=middle;resizable=0;points=[];" vertex="1" connectable="0" parent="VSo4V4eXXir1srvnfNkP-4">
          <mxGeometry x="-0.1333" y="4" relative="1" as="geometry">
            <mxPoint y="-7" as="offset" />
          </mxGeometry>
        </mxCell>
        <mxCell id="VSo4V4eXXir1srvnfNkP-1" value="요청" style="rounded=0;whiteSpace=wrap;html=1;" vertex="1" parent="1">
          <mxGeometry x="100" y="150" width="70" height="30" as="geometry" />
        </mxCell>
        <mxCell id="VSo4V4eXXir1srvnfNkP-5" style="edgeStyle=orthogonalEdgeStyle;rounded=0;orthogonalLoop=1;jettySize=auto;html=1;entryX=0;entryY=0.5;entryDx=0;entryDy=0;endArrow=block;endFill=1;" edge="1" parent="1" source="VSo4V4eXXir1srvnfNkP-2" target="VSo4V4eXXir1srvnfNkP-3">
          <mxGeometry relative="1" as="geometry" />
        </mxCell>
        <mxCell id="VSo4V4eXXir1srvnfNkP-7" value="모델 B" style="edgeLabel;html=1;align=center;verticalAlign=middle;resizable=0;points=[];" vertex="1" connectable="0" parent="VSo4V4eXXir1srvnfNkP-5">
          <mxGeometry x="-0.4" y="1" relative="1" as="geometry">
            <mxPoint x="12" y="-10" as="offset" />
          </mxGeometry>
        </mxCell>
        <mxCell id="VSo4V4eXXir1srvnfNkP-2" value="프록" style="rounded=0;whiteSpace=wrap;html=1;" vertex="1" parent="1">
          <mxGeometry x="250" y="150" width="70" height="30" as="geometry" />
        </mxCell>
        <mxCell id="VSo4V4eXXir1srvnfNkP-3" value="목표" style="rounded=0;whiteSpace=wrap;html=1;" vertex="1" parent="1">
          <mxGeometry x="400" y="150" width="70" height="30" as="geometry" />
        </mxCell>
      </root>
    </mxGraphModel>
  </diagram>
</mxfile>
